<svg width="680" height="920" viewBox="0 0 680 920" xmlns="http://www.w3.org/2000/svg" font-family="Helvetica, Arial, sans-serif">
<rect width="680" height="920" fill="#ffffff"/>
<defs>
<marker id="arrow" viewBox="0 0 10 10" refX="8" refY="5" markerWidth="6" markerHeight="6" orient="auto-start-reverse"><path d="M2 1L8 5L2 9" fill="none" stroke="#444441" stroke-width="1.5" stroke-linecap="round" stroke-linejoin="round"/></marker>
</defs>

<rect x="270" y="20" width="140" height="44" rx="8" fill="#F1EFE8" stroke="#5F5E5A" stroke-width="0.5"/>
<text x="340" y="42" text-anchor="middle" dominant-baseline="central" font-size="14" font-weight="500" fill="#2C2C2A">Internet</text>
<line x1="340" y1="64" x2="340" y2="100" stroke="#444441" stroke-width="1.5" marker-end="url(#arrow)"/>

<rect x="240" y="100" width="200" height="56" rx="8" fill="#FAECE7" stroke="#993C1D" stroke-width="0.5"/>
<text x="340" y="118" text-anchor="middle" dominant-baseline="central" font-size="14" font-weight="500" fill="#4A1B0C">NGINX ingress</text>
<text x="340" y="136" text-anchor="middle" dominant-baseline="central" font-size="12" fill="#712B13">Routing, SSL, load balancing</text>
<line x1="340" y1="156" x2="340" y2="186" stroke="#444441" stroke-width="1.5" marker-end="url(#arrow)"/>

<rect x="40" y="186" width="600" height="500" rx="20" fill="#E6F1FB" stroke="#185FA5" stroke-width="0.5"/>
<text x="60" y="216" font-size="14" font-weight="500" fill="#042C53">Kubernetes cluster</text>
<text x="60" y="234" font-size="12" fill="#0C447C">1 master, 2 workers</text>

<rect x="80" y="250" width="220" height="56" rx="12" fill="#EEEDFE" stroke="#534AB7" stroke-width="0.5"/>
<text x="190" y="268" text-anchor="middle" dominant-baseline="central" font-size="14" font-weight="500" fill="#26215C">Frontend service</text>
<text x="190" y="286" text-anchor="middle" dominant-baseline="central" font-size="12" fill="#3C3489">Deployed via Helm</text>

<rect x="380" y="250" width="220" height="56" rx="12" fill="#EEEDFE" stroke="#534AB7" stroke-width="0.5"/>
<text x="490" y="268" text-anchor="middle" dominant-baseline="central" font-size="14" font-weight="500" fill="#26215C">Backend service</text>
<text x="490" y="286" text-anchor="middle" dominant-baseline="central" font-size="12" fill="#3C3489">Deployed via Helm</text>

<line x1="190" y1="306" x2="190" y2="330" stroke="#444441" stroke-width="1.5" marker-end="url(#arrow)"/>
<line x1="490" y1="306" x2="490" y2="330" stroke="#444441" stroke-width="1.5" marker-end="url(#arrow)"/>

<rect x="70" y="330" width="270" height="160" rx="12" fill="#E1F5EE" stroke="#0F6E56" stroke-width="0.5"/>
<text x="90" y="354" font-size="14" font-weight="500" fill="#04342C">Monitoring</text>

<rect x="90" y="370" width="110" height="44" rx="8" fill="#E1F5EE" stroke="#0F6E56" stroke-width="0.5"/>
<text x="145" y="392" text-anchor="middle" dominant-baseline="central" font-size="14" fill="#04342C">Prometheus</text>

<rect x="210" y="370" width="110" height="44" rx="8" fill="#E1F5EE" stroke="#0F6E56" stroke-width="0.5"/>
<text x="265" y="392" text-anchor="middle" dominant-baseline="central" font-size="14" fill="#04342C">Grafana</text>

<rect x="90" y="426" width="230" height="44" rx="8" fill="#E1F5EE" stroke="#0F6E56" stroke-width="0.5"/>
<text x="205" y="448" text-anchor="middle" dominant-baseline="central" font-size="14" fill="#04342C">AlertManager</text>
<line x1="145" y1="414" x2="145" y2="426" stroke="#444441" stroke-width="1.5" marker-end="url(#arrow)"/>

<rect x="360" y="330" width="260" height="160" rx="12" fill="#FAEEDA" stroke="#854F0B" stroke-width="0.5"/>
<text x="380" y="354" font-size="14" font-weight="500" fill="#412402">Logging</text>

<rect x="380" y="370" width="220" height="44" rx="8" fill="#FAEEDA" stroke="#854F0B" stroke-width="0.5"/>
<text x="490" y="392" text-anchor="middle" dominant-baseline="central" font-size="14" fill="#412402">FluentBit</text>

<rect x="380" y="426" width="105" height="44" rx="8" fill="#FAEEDA" stroke="#854F0B" stroke-width="0.5"/>
<text x="432" y="448" text-anchor="middle" dominant-baseline="central" font-size="14" fill="#412402">Elasticsearch</text>

<rect x="495" y="426" width="105" height="44" rx="8" fill="#FAEEDA" stroke="#854F0B" stroke-width="0.5"/>
<text x="547" y="448" text-anchor="middle" dominant-baseline="central" font-size="14" fill="#412402">Kibana</text>

<line x1="490" y1="414" x2="432" y2="426" stroke="#444441" stroke-width="1.5" marker-end="url(#arrow)"/>
<line x1="432" y1="470" x2="500" y2="470" stroke="#444441" stroke-width="1.5" marker-end="url(#arrow)"/>

<rect x="220" y="510" width="240" height="56" rx="8" fill="#FBEAF0" stroke="#993556" stroke-width="0.5"/>
<text x="340" y="528" text-anchor="middle" dominant-baseline="central" font-size="14" font-weight="500" fill="#4B1528">Jenkins CI/CD</text>
<text x="340" y="546" text-anchor="middle" dominant-baseline="central" font-size="12" fill="#72243E">Build, push to ECR, deploy</text>
<line x1="340" y1="566" x2="340" y2="596" stroke="#444441" stroke-width="1.5" marker-end="url(#arrow)"/>

<rect x="80" y="610" width="160" height="44" rx="8" fill="#F1EFE8" stroke="#5F5E5A" stroke-width="0.5"/>
<text x="160" y="632" text-anchor="middle" dominant-baseline="central" font-size="14" fill="#2C2C2A">Terraform</text>

<rect x="440" y="610" width="160" height="44" rx="8" fill="#F1EFE8" stroke="#5F5E5A" stroke-width="0.5"/>
<text x="520" y="632" text-anchor="middle" dominant-baseline="central" font-size="14" fill="#2C2C2A">Ansible</text>

<line x1="160" y1="654" x2="160" y2="686" stroke="#444441" stroke-width="1.5" marker-end="url(#arrow)"/>
<line x1="520" y1="654" x2="520" y2="686" stroke="#444441" stroke-width="1.5" marker-end="url(#arrow)"/>

<rect x="40" y="700" width="600" height="180" rx="20" fill="#EAF3DE" stroke="#3B6D11" stroke-width="0.5"/>
<text x="60" y="730" font-size="14" font-weight="500" fill="#173404">AWS infrastructure</text>

<rect x="70" y="750" width="120" height="44" rx="8" fill="#EAF3DE" stroke="#3B6D11" stroke-width="0.5"/>
<text x="130" y="772" text-anchor="middle" dominant-baseline="central" font-size="14" fill="#173404">VPC</text>

<rect x="210" y="750" width="120" height="44" rx="8" fill="#EAF3DE" stroke="#3B6D11" stroke-width="0.5"/>
<text x="270" y="772" text-anchor="middle" dominant-baseline="central" font-size="14" fill="#173404">EC2</text>

<rect x="350" y="750" width="120" height="44" rx="8" fill="#EAF3DE" stroke="#3B6D11" stroke-width="0.5"/>
<text x="410" y="772" text-anchor="middle" dominant-baseline="central" font-size="14" fill="#173404">IAM</text>

<rect x="490" y="750" width="120" height="44" rx="8" fill="#EAF3DE" stroke="#3B6D11" stroke-width="0.5"/>
<text x="550" y="772" text-anchor="middle" dominant-baseline="central" font-size="14" fill="#173404">ECR</text>

<text x="60" y="822" font-size="12" fill="#444441">Supporting servers: DevOps (Jenkins/Ansible), MySQL, Cassandra</text>
<text x="60" y="844" font-size="12" fill="#444441">Networking: Internet gateway, NAT gateway, route tables, security groups</text>
</svg>
