<svg width="680" height="300" viewBox="0 0 680 300" xmlns="http://www.w3.org/2000/svg" font-family="Helvetica, Arial, sans-serif">
<rect width="680" height="300" fill="#ffffff"/>
<defs>
<marker id="arrow" viewBox="0 0 10 10" refX="8" refY="5" markerWidth="6" markerHeight="6" orient="auto-start-reverse"><path d="M2 1L8 5L2 9" fill="none" stroke="#993C1D" stroke-width="1.5" stroke-linecap="round" stroke-linejoin="round"/></marker>
</defs>

<rect x="240" y="20" width="200" height="44" rx="8" fill="#FAECE7" stroke="#993C1D" stroke-width="0.5"/>
<text x="340" y="42" text-anchor="middle" dominant-baseline="central" font-size="14" font-weight="500" fill="#4A1B0C">NGINX ingress controller</text>

<line x1="280" y1="64" x2="120" y2="100" stroke="#993C1D" stroke-width="1.5" marker-end="url(#arrow)"/>
<line x1="313" y1="64" x2="220" y2="100" stroke="#993C1D" stroke-width="1.5" marker-end="url(#arrow)"/>
<line x1="366" y1="64" x2="460" y2="100" stroke="#993C1D" stroke-width="1.5" marker-end="url(#arrow)"/>
<line x1="400" y1="64" x2="560" y2="100" stroke="#993C1D" stroke-width="1.5" marker-end="url(#arrow)"/>

<rect x="40" y="100" width="160" height="56" rx="8" fill="#FAECE7" stroke="#993C1D" stroke-width="0.5"/>
<text x="120" y="118" text-anchor="middle" dominant-baseline="central" font-size="14" font-weight="500" fill="#4A1B0C">Reverse proxy</text>
<text x="120" y="136" text-anchor="middle" dominant-baseline="central" font-size="12" fill="#712B13">Forwards client requests</text>

<rect x="220" y="100" width="160" height="56" rx="8" fill="#FAECE7" stroke="#993C1D" stroke-width="0.5"/>
<text x="300" y="118" text-anchor="middle" dominant-baseline="central" font-size="14" font-weight="500" fill="#4A1B0C">Load balancing</text>
<text x="300" y="136" text-anchor="middle" dominant-baseline="central" font-size="12" fill="#712B13">Distributes across pods</text>

<rect x="400" y="100" width="160" height="56" rx="8" fill="#FAECE7" stroke="#993C1D" stroke-width="0.5"/>
<text x="480" y="118" text-anchor="middle" dominant-baseline="central" font-size="14" font-weight="500" fill="#4A1B0C">SSL termination</text>
<text x="480" y="136" text-anchor="middle" dominant-baseline="central" font-size="12" fill="#712B13">Decrypts HTTPS traffic</text>

<rect x="490" y="180" width="150" height="56" rx="8" fill="#FAECE7" stroke="#993C1D" stroke-width="1"/>
<text x="565" y="198" text-anchor="middle" dominant-baseline="central" font-size="14" font-weight="500" fill="#4A1B0C">Routing</text>
<text x="565" y="216" text-anchor="middle" dominant-baseline="central" font-size="12" fill="#712B13">Path-based to services</text>
<line x1="480" y1="156" x2="540" y2="180" stroke="#993C1D" stroke-width="1.5" marker-end="url(#arrow)"/>

<line x1="120" y1="156" x2="120" y2="200" stroke="#993C1D" stroke-width="1.5" marker-end="url(#arrow)"/>
<line x1="300" y1="156" x2="300" y2="200" stroke="#993C1D" stroke-width="1.5" marker-end="url(#arrow)"/>

<rect x="40" y="200" width="160" height="44" rx="8" fill="#EEEDFE" stroke="#534AB7" stroke-width="0.5"/>
<text x="120" y="222" text-anchor="middle" dominant-baseline="central" font-size="14" fill="#26215C">Frontend service</text>

<rect x="220" y="200" width="160" height="44" rx="8" fill="#EEEDFE" stroke="#534AB7" stroke-width="0.5"/>
<text x="300" y="222" text-anchor="middle" dominant-baseline="central" font-size="14" fill="#26215C">Backend service</text>
</svg>
