<svg width="680" height="300" viewBox="0 0 680 300" xmlns="http://www.w3.org/2000/svg" font-family="Helvetica, Arial, sans-serif">
<rect width="680" height="300" fill="#ffffff"/>
<defs>
<marker id="arrow" viewBox="0 0 10 10" refX="8" refY="5" markerWidth="6" markerHeight="6" orient="auto-start-reverse"><path d="M2 1L8 5L2 9" fill="none" stroke="#0F6E56" stroke-width="1.5" stroke-linecap="round" stroke-linejoin="round"/></marker>
</defs>

<rect x="60" y="20" width="170" height="40" rx="8" fill="#E1F5EE" stroke="#0F6E56" stroke-width="0.5"/>
<text x="145" y="40" text-anchor="middle" dominant-baseline="central" font-size="14" fill="#04342C">Node metrics</text>

<rect x="255" y="20" width="170" height="40" rx="8" fill="#E1F5EE" stroke="#0F6E56" stroke-width="0.5"/>
<text x="340" y="40" text-anchor="middle" dominant-baseline="central" font-size="14" fill="#04342C">Kubernetes metrics</text>

<rect x="450" y="20" width="170" height="40" rx="8" fill="#E1F5EE" stroke="#0F6E56" stroke-width="0.5"/>
<text x="535" y="40" text-anchor="middle" dominant-baseline="central" font-size="14" fill="#04342C">Application metrics</text>

<line x1="145" y1="60" x2="290" y2="100" stroke="#0F6E56" stroke-width="1.5" marker-end="url(#arrow)"/>
<line x1="340" y1="60" x2="340" y2="100" stroke="#0F6E56" stroke-width="1.5" marker-end="url(#arrow)"/>
<line x1="535" y1="60" x2="390" y2="100" stroke="#0F6E56" stroke-width="1.5" marker-end="url(#arrow)"/>

<rect x="260" y="100" width="160" height="44" rx="8" fill="#9FE1CB" stroke="#0F6E56" stroke-width="0.5"/>
<text x="340" y="122" text-anchor="middle" dominant-baseline="central" font-size="14" font-weight="500" fill="#04342C">Prometheus</text>

<line x1="300" y1="144" x2="160" y2="190" stroke="#0F6E56" stroke-width="1.5" marker-end="url(#arrow)"/>
<line x1="380" y1="144" x2="520" y2="190" stroke="#0F6E56" stroke-width="1.5" marker-end="url(#arrow)"/>

<rect x="60" y="190" width="200" height="56" rx="8" fill="#E1F5EE" stroke="#0F6E56" stroke-width="0.5"/>
<text x="160" y="208" text-anchor="middle" dominant-baseline="central" font-size="14" font-weight="500" fill="#04342C">Grafana</text>
<text x="160" y="226" text-anchor="middle" dominant-baseline="central" font-size="12" fill="#085041">Dashboards and visualization</text>

<rect x="420" y="190" width="200" height="56" rx="8" fill="#E1F5EE" stroke="#0F6E56" stroke-width="0.5"/>
<text x="520" y="208" text-anchor="middle" dominant-baseline="central" font-size="14" font-weight="500" fill="#04342C">AlertManager</text>
<text x="520" y="226" text-anchor="middle" dominant-baseline="central" font-size="12" fill="#085041">Routing and notifications</text>
</svg>
