<svg width="680" height="580" viewBox="0 0 680 580" xmlns="http://www.w3.org/2000/svg" font-family="Helvetica, Arial, sans-serif">
<rect width="680" height="580" fill="#ffffff"/>
<defs>
<marker id="arrow" viewBox="0 0 10 10" refX="8" refY="5" markerWidth="6" markerHeight="6" orient="auto-start-reverse"><path d="M2 1L8 5L2 9" fill="none" stroke="#993556" stroke-width="1.5" stroke-linecap="round" stroke-linejoin="round"/></marker>
</defs>

<rect x="260" y="20" width="160" height="44" rx="8" fill="#FBEAF0" stroke="#993556" stroke-width="0.5"/>
<text x="340" y="42" text-anchor="middle" dominant-baseline="central" font-size="14" font-weight="500" fill="#4B1528">Git checkout</text>
<line x1="340" y1="64" x2="340" y2="90" stroke="#993556" stroke-width="1.5" marker-end="url(#arrow)"/>

<rect x="260" y="90" width="160" height="44" rx="8" fill="#FBEAF0" stroke="#993556" stroke-width="0.5"/>
<text x="340" y="112" text-anchor="middle" dominant-baseline="central" font-size="14" font-weight="500" fill="#4B1528">Build</text>
<line x1="340" y1="134" x2="340" y2="160" stroke="#993556" stroke-width="1.5" marker-end="url(#arrow)"/>

<rect x="260" y="160" width="160" height="44" rx="8" fill="#FBEAF0" stroke="#993556" stroke-width="0.5"/>
<text x="340" y="182" text-anchor="middle" dominant-baseline="central" font-size="14" font-weight="500" fill="#4B1528">Unit tests</text>
<line x1="340" y1="204" x2="340" y2="230" stroke="#993556" stroke-width="1.5" marker-end="url(#arrow)"/>

<rect x="260" y="230" width="160" height="44" rx="8" fill="#FBEAF0" stroke="#993556" stroke-width="0.5"/>
<text x="340" y="252" text-anchor="middle" dominant-baseline="central" font-size="14" font-weight="500" fill="#4B1528">Docker build</text>
<line x1="340" y1="274" x2="340" y2="300" stroke="#993556" stroke-width="1.5" marker-end="url(#arrow)"/>

<rect x="260" y="300" width="160" height="44" rx="8" fill="#FBEAF0" stroke="#993556" stroke-width="0.5"/>
<text x="340" y="322" text-anchor="middle" dominant-baseline="central" font-size="14" font-weight="500" fill="#4B1528">Push to ECR</text>
<line x1="340" y1="344" x2="340" y2="370" stroke="#993556" stroke-width="1.5" marker-end="url(#arrow)"/>

<rect x="260" y="370" width="160" height="44" rx="8" fill="#FBEAF0" stroke="#993556" stroke-width="0.5"/>
<text x="340" y="392" text-anchor="middle" dominant-baseline="central" font-size="14" font-weight="500" fill="#4B1528">Helm package</text>
<line x1="340" y1="414" x2="340" y2="440" stroke="#993556" stroke-width="1.5" marker-end="url(#arrow)"/>

<rect x="260" y="440" width="160" height="44" rx="8" fill="#FBEAF0" stroke="#993556" stroke-width="0.5"/>
<text x="340" y="462" text-anchor="middle" dominant-baseline="central" font-size="14" font-weight="500" fill="#4B1528">Deploy to Kubernetes</text>
<line x1="340" y1="484" x2="340" y2="510" stroke="#993556" stroke-width="1.5" marker-end="url(#arrow)"/>

<rect x="260" y="510" width="160" height="44" rx="8" fill="#FBEAF0" stroke="#993556" stroke-width="0.5"/>
<text x="340" y="532" text-anchor="middle" dominant-baseline="central" font-size="14" font-weight="500" fill="#4B1528">Smoke tests</text>
</svg>
