<svg width="680" height="600" viewBox="0 0 680 600" xmlns="http://www.w3.org/2000/svg" font-family="Helvetica, Arial, sans-serif">
<rect width="680" height="600" fill="#ffffff"/>
<defs>
<marker id="arrow" viewBox="0 0 10 10" refX="8" refY="5" markerWidth="6" markerHeight="6" orient="auto-start-reverse"><path d="M2 1L8 5L2 9" fill="none" stroke="#185FA5" stroke-width="1.5" stroke-linecap="round" stroke-linejoin="round"/></marker>
</defs>

<rect x="260" y="20" width="160" height="56" rx="8" fill="#E6F1FB" stroke="#185FA5" stroke-width="0.5"/>
<text x="340" y="38" text-anchor="middle" dominant-baseline="central" font-size="14" font-weight="500" fill="#042C53">Common</text>
<text x="340" y="56" text-anchor="middle" dominant-baseline="central" font-size="12" fill="#0C447C">OS setup, SSH, swap off</text>
<line x1="340" y1="76" x2="340" y2="102" stroke="#185FA5" stroke-width="1.5" marker-end="url(#arrow)"/>

<rect x="260" y="102" width="160" height="56" rx="8" fill="#E6F1FB" stroke="#185FA5" stroke-width="0.5"/>
<text x="340" y="120" text-anchor="middle" dominant-baseline="central" font-size="14" font-weight="500" fill="#042C53">Kubernetes install</text>
<text x="340" y="138" text-anchor="middle" dominant-baseline="central" font-size="12" fill="#0C447C">containerd, kubeadm, kubelet</text>
<line x1="340" y1="158" x2="340" y2="184" stroke="#185FA5" stroke-width="1.5" marker-end="url(#arrow)"/>

<rect x="260" y="184" width="160" height="56" rx="8" fill="#E6F1FB" stroke="#185FA5" stroke-width="0.5"/>
<text x="340" y="202" text-anchor="middle" dominant-baseline="central" font-size="14" font-weight="500" fill="#042C53">Cluster init</text>
<text x="340" y="220" text-anchor="middle" dominant-baseline="central" font-size="12" fill="#0C447C">Initializes control plane</text>
<line x1="340" y1="240" x2="340" y2="266" stroke="#185FA5" stroke-width="1.5" marker-end="url(#arrow)"/>

<rect x="260" y="266" width="160" height="56" rx="8" fill="#E6F1FB" stroke="#185FA5" stroke-width="0.5"/>
<text x="340" y="284" text-anchor="middle" dominant-baseline="central" font-size="14" font-weight="500" fill="#042C53">Worker join</text>
<text x="340" y="302" text-anchor="middle" dominant-baseline="central" font-size="12" fill="#0C447C">Joins workers to cluster</text>
<line x1="340" y1="322" x2="340" y2="348" stroke="#185FA5" stroke-width="1.5" marker-end="url(#arrow)"/>

<rect x="260" y="348" width="160" height="56" rx="8" fill="#E6F1FB" stroke="#185FA5" stroke-width="0.5"/>
<text x="340" y="366" text-anchor="middle" dominant-baseline="central" font-size="14" font-weight="500" fill="#042C53">Calico</text>
<text x="340" y="384" text-anchor="middle" dominant-baseline="central" font-size="12" fill="#0C447C">Installs pod networking</text>
<line x1="340" y1="404" x2="340" y2="430" stroke="#185FA5" stroke-width="1.5" marker-end="url(#arrow)"/>

<rect x="260" y="430" width="160" height="56" rx="8" fill="#E6F1FB" stroke="#185FA5" stroke-width="0.5"/>
<text x="340" y="448" text-anchor="middle" dominant-baseline="central" font-size="14" font-weight="500" fill="#042C53">Helm</text>
<text x="340" y="466" text-anchor="middle" dominant-baseline="central" font-size="12" fill="#0C447C">Installs package manager</text>
<line x1="340" y1="486" x2="340" y2="512" stroke="#185FA5" stroke-width="1.5" marker-end="url(#arrow)"/>

<rect x="220" y="512" width="240" height="56" rx="8" fill="#F1EFE8" stroke="#5F5E5A" stroke-width="0.5"/>
<text x="340" y="530" text-anchor="middle" dominant-baseline="central" font-size="14" font-weight="500" fill="#2C2C2A">Cluster ready</text>
<text x="340" y="548" text-anchor="middle" dominant-baseline="central" font-size="12" fill="#5F5E5A">Jenkins can now deploy via Helm</text>
</svg>
